<?xml version="1.0" encoding="utf-8"?>
<!-- Generator: Adobe Illustrator 16.0.0, SVG Export Plug-In . SVG Version: 6.00 Build 0)  -->
<!DOCTYPE svg PUBLIC "-//W3C//DTD SVG 1.1//EN" "http://www.w3.org/Graphics/SVG/1.1/DTD/svg11.dtd">
<svg version="1.1" id="Layer_1" xmlns="http://www.w3.org/2000/svg" xmlns:xlink="http://www.w3.org/1999/xlink" x="0px" y="0px"
	 width="146.5px" height="146px" viewBox="0 0 146.5 146" enable-background="new 0 0 146.5 146" xml:space="preserve">
<polygon fill="#E45C5C" points="56.845,36.937 109.717,52.719 56.845,68.503 "/>
<polygon fill="#BF5959" points="57.478,37.127 62.352,66.858 57.478,68.313 "/>
<line fill="none" stroke="#E56D6C" stroke-width="2" stroke-linecap="round" stroke-miterlimit="10" x1="71.925" y1="42.899" x2="101.824" y2="51.668"/>
<path fill="none" stroke="#6F6F6E" stroke-width="3" stroke-linecap="round" stroke-miterlimit="10" d="M55.792,67.601
	c-8.217,0-14.881-6.663-14.881-14.882c0-8.218,6.664-14.881,14.881-14.881"/>
<line fill="none" stroke="#CCCBCB" stroke-width="3" stroke-linecap="round" stroke-miterlimit="10" x1="56.845" y1="36.937" x2="56.845" y2="111.116"/>
<polygon fill="#FFFFFF" points="25.856,47.542 29.008,47.403 28.2,29.056 47.815,28.871 47.787,25.707 24.897,25.928 "/>
<path fill="#FFFFFF" d="M72.809,142.328c-0.003,0-0.002,0-0.005,0c-17.489-0.001-34.206-6.496-47.072-18.289
	C-2.596,98.071-4.517,53.896,21.453,25.563C34.601,11.222,53.338,2.996,72.859,2.996c17.487,0,34.202,6.495,47.069,18.288
	c13.701,12.56,21.693,29.731,22.504,48.352c0.811,18.621-5.661,36.423-18.223,50.124C111.063,134.102,92.327,142.328,72.809,142.328
	z M72.859,4.927c-18.981,0-37.199,7.997-49.983,21.941c-25.249,27.547-23.383,70.5,4.161,95.747
	c12.51,11.467,28.764,17.781,45.768,17.782c0.002,0,0.004,0,0.005,0c18.979,0,37.194-7.998,49.977-21.942
	c12.213-13.321,18.506-30.629,17.717-48.735c-0.787-18.104-8.557-34.801-21.879-47.013C106.114,11.24,89.861,4.927,72.859,4.927z"/>
</svg>
