<?xml version="1.0" encoding="utf-8"?>
<!-- Generator: Adobe Illustrator 16.0.0, SVG Export Plug-In . SVG Version: 6.00 Build 0)  -->
<!DOCTYPE svg PUBLIC "-//W3C//DTD SVG 1.1//EN" "http://www.w3.org/Graphics/SVG/1.1/DTD/svg11.dtd">
<svg version="1.1" id="Layer_1" xmlns="http://www.w3.org/2000/svg" xmlns:xlink="http://www.w3.org/1999/xlink" x="0px" y="0px"
	 width="146.5px" height="146px" viewBox="0 0 146.5 146" enable-background="new 0 0 146.5 146" xml:space="preserve">
<polygon fill="#E45C5C" points="57.844,36.605 110.716,52.388 57.844,68.171 "/>
<polygon fill="#BF5959" points="58.478,36.795 63.352,66.526 58.478,67.981 "/>
<line fill="none" stroke="#E56D6C" stroke-width="2" stroke-linecap="round" stroke-miterlimit="10" x1="72.926" y1="42.567" x2="102.823" y2="51.336"/>
<path fill="none" stroke="#6F6F6E" stroke-width="3" stroke-linecap="round" stroke-miterlimit="10" d="M56.792,67.269
	c-8.217,0-14.882-6.663-14.882-14.881s6.665-14.881,14.882-14.881"/>
<line fill="none" stroke="#CCCBCB" stroke-width="3" stroke-linecap="round" stroke-miterlimit="10" x1="57.844" y1="36.605" x2="57.844" y2="110.784"/>
<polygon fill="#FFFFFF" points="58.378,21.354 60.705,23.485 73.107,9.939 87.11,23.678 89.324,21.421 72.984,5.392 "/>
<path fill="#FFFFFF" d="M73.808,141.996c-0.002,0-0.002,0-0.004,0c-17.489-0.001-34.206-6.496-47.071-18.289
	C-1.596,97.74-3.516,53.565,22.452,25.233C35.6,10.89,54.336,2.664,73.858,2.664c17.486,0,34.203,6.495,47.069,18.288
	c13.702,12.56,21.694,29.731,22.505,48.352c0.81,18.621-5.662,36.422-18.223,50.124C112.062,133.77,93.327,141.996,73.808,141.996z
	 M73.858,4.595c-18.98,0-37.199,7.998-49.982,21.943c-25.249,27.547-23.383,70.499,4.162,95.747
	c12.508,11.466,28.762,17.78,45.767,17.781c0.001,0,0.003,0,0.004,0c18.979,0,37.195-7.997,49.978-21.942
	c12.213-13.321,18.505-30.629,17.717-48.735c-0.787-18.105-8.559-34.801-21.88-47.013C107.113,10.909,90.861,4.595,73.858,4.595z"/>
</svg>
