<?xml version="1.0" encoding="utf-8"?>
<!-- Generator: Adobe Illustrator 16.0.0, SVG Export Plug-In . SVG Version: 6.00 Build 0)  -->
<!DOCTYPE svg PUBLIC "-//W3C//DTD SVG 1.1//EN" "http://www.w3.org/Graphics/SVG/1.1/DTD/svg11.dtd">
<svg version="1.1" id="Layer_1" xmlns="http://www.w3.org/2000/svg" xmlns:xlink="http://www.w3.org/1999/xlink" x="0px" y="0px"
	 width="146.5px" height="146px" viewBox="0 0 146.5 146" enable-background="new 0 0 146.5 146" xml:space="preserve">
<polygon fill="#E45C5C" points="56.846,36.605 109.717,52.388 56.846,68.171 "/>
<polygon fill="#BF5959" points="57.479,36.795 62.353,66.526 57.479,67.981 "/>
<line fill="none" stroke="#E56D6C" stroke-width="2" stroke-linecap="round" stroke-miterlimit="10" x1="71.927" y1="42.567" x2="101.825" y2="51.336"/>
<path fill="none" stroke="#6F6F6E" stroke-width="3" stroke-linecap="round" stroke-miterlimit="10" d="M55.792,67.269
	c-8.217,0-14.881-6.663-14.881-14.881s6.664-14.881,14.881-14.881"/>
<line fill="none" stroke="#CCCBCB" stroke-width="3" stroke-linecap="round" stroke-miterlimit="10" x1="56.846" y1="36.605" x2="56.846" y2="110.784"/>
<polygon fill="#FFFFFF" points="97.953,25.36 98.091,28.514 116.439,27.705 116.625,47.322 119.787,47.291 119.566,24.402 "/>
<path fill="#FFFFFF" d="M72.809,141.996c-0.003,0-0.002,0-0.005,0c-17.488-0.001-34.205-6.496-47.07-18.289
	C-2.595,97.739-4.515,53.564,21.453,25.233C34.602,10.89,53.339,2.664,72.86,2.664c17.487,0,34.202,6.495,47.068,18.288
	c13.702,12.56,21.694,29.731,22.504,48.352c0.811,18.621-5.661,36.422-18.222,50.124C111.063,133.77,92.328,141.996,72.809,141.996z
	 M72.86,4.595c-18.98,0-37.2,7.998-49.983,21.943c-25.25,27.546-23.383,70.498,4.162,95.747
	c12.508,11.466,28.762,17.78,45.767,17.781c0.001,0,0.003,0,0.004,0c18.979,0,37.195-7.997,49.978-21.942
	c12.213-13.322,18.505-30.629,17.717-48.735c-0.787-18.105-8.558-34.801-21.88-47.013C106.115,10.909,89.863,4.595,72.86,4.595z"/>
</svg>
