<?xml version="1.0" encoding="utf-8"?>
<!-- Generator: Adobe Illustrator 16.0.0, SVG Export Plug-In . SVG Version: 6.00 Build 0)  -->
<!DOCTYPE svg PUBLIC "-//W3C//DTD SVG 1.1//EN" "http://www.w3.org/Graphics/SVG/1.1/DTD/svg11.dtd">
<svg version="1.1" id="Layer_1" xmlns="http://www.w3.org/2000/svg" xmlns:xlink="http://www.w3.org/1999/xlink" x="0px" y="0px"
	 width="146.5px" height="146px" viewBox="0 0 146.5 146" enable-background="new 0 0 146.5 146" xml:space="preserve">
<g>
	<path fill="#70C1EC" stroke="#F5F5F5" stroke-width="3" stroke-miterlimit="10" d="M88.429,9.899l21.226,73.869
		c3.263,11.231,4.365,21.857-0.282,32.858c-7.208,17.064-29.876,23.229-46.95,19.718c-16.906-3.478-35.094-18.046-34.95-36.563
		c0.097-11.937,5.271-21.271,12.647-30.314L88.429,9.899z"/>
	
		<line opacity="0.3" fill="none" stroke="#F5F5F5" stroke-width="3" stroke-linecap="round" stroke-miterlimit="10" x1="87.86" y1="36.79" x2="105.275" y2="96.907"/>
	<g>
		<defs>
			<path id="SVGID_1_" d="M112.873,111.828L105.844,146l-80.15-16.485l11.951-58.107l11.768-6.314
				c-12.349,17.64-8.058,41.948,9.58,54.294c17.64,12.348,41.948,8.058,54.296-9.583"/>
		</defs>
		<clipPath id="SVGID_2_">
			<use xlink:href="#SVGID_1_"  overflow="visible"/>
		</clipPath>
		<path clip-path="url(#SVGID_2_)" fill="#259AC3" d="M86.75,20.625l18.594,64.707c2.857,9.839,3.824,19.148-0.248,28.785
			c-6.313,14.948-26.173,20.35-41.128,17.273c-14.809-3.046-30.744-15.81-30.614-32.029c0.083-10.458,4.616-18.636,11.079-26.558
			L86.75,20.625z"/>
	</g>
	
		<ellipse transform="matrix(0.9795 0.2015 -0.2015 0.9795 22.56 -16.6392)" opacity="0.3" fill="#FFFFFF" cx="93.014" cy="102.498" rx="13.656" ry="19.303"/>
</g>
<path fill="#70C1EC" stroke="#F5F5F5" stroke-width="2" stroke-miterlimit="10" d="M109.688,14.272l9.493,33.038
	c1.459,5.023,1.952,9.775-0.126,14.695c-3.225,7.633-13.362,10.39-20.998,8.819c-7.563-1.556-15.696-8.071-15.632-16.354
	c0.043-5.338,2.356-9.514,5.656-13.558L109.688,14.272z"/>
<g>
	<defs>
		<path id="SVGID_3_" d="M120.62,59.859l-3.143,15.283L81.629,67.77l5.346-25.988l5.262-2.824
			c-5.521,7.89-3.604,18.762,4.285,24.283c7.89,5.522,18.762,3.604,24.284-4.286"/>
	</defs>
	<clipPath id="SVGID_4_">
		<use xlink:href="#SVGID_3_"  overflow="visible"/>
	</clipPath>
	<path clip-path="url(#SVGID_4_)" fill="#259AC3" d="M108.937,19.069l8.315,28.939c1.277,4.4,1.711,8.564-0.11,12.874
		c-2.823,6.686-11.706,9.103-18.395,7.727c-6.623-1.362-13.75-7.071-13.692-14.326c0.038-4.677,2.065-8.335,4.955-11.878
		L108.937,19.069z"/>
</g>
<path opacity="0.3" fill="#FFFFFF" d="M117.87,57.34c-1.412,6.863-6.63,11.589-11.656,10.555c-5.022-1.033-7.952-7.435-6.541-14.298
	c1.411-6.859,6.63-11.585,11.652-10.552C116.35,44.078,119.28,50.479,117.87,57.34z"/>
</svg>
