<?xml version="1.0" encoding="utf-8"?>
<!-- Generator: Adobe Illustrator 16.0.0, SVG Export Plug-In . SVG Version: 6.00 Build 0)  -->
<!DOCTYPE svg PUBLIC "-//W3C//DTD SVG 1.1//EN" "http://www.w3.org/Graphics/SVG/1.1/DTD/svg11.dtd">
<svg version="1.1" id="Layer_1" xmlns="http://www.w3.org/2000/svg" xmlns:xlink="http://www.w3.org/1999/xlink" x="0px" y="0px"
	 width="146.5px" height="146px" viewBox="0 0 146.5 146" enable-background="new 0 0 146.5 146" xml:space="preserve">
<g>
	<g>
		<path fill="#70C1EC" stroke="#FFFFFF" stroke-miterlimit="10" d="M32.422,77.503c-0.201,0-0.406-0.031-0.608-0.095
			c-1.053-0.336-1.633-1.462-1.297-2.514l0.761-2.381c0.336-1.052,1.46-1.632,2.514-1.297c1.053,0.336,1.633,1.462,1.297,2.514
			l-0.761,2.381C34.056,76.961,33.27,77.503,32.422,77.503z"/>
		<path fill="#70C1EC" stroke="#FFFFFF" stroke-miterlimit="10" d="M22.12,109.755c-0.202,0-0.407-0.031-0.609-0.095
			c-1.053-0.336-1.633-1.462-1.297-2.514l1.393-4.358c0.336-1.052,1.46-1.633,2.514-1.296c1.053,0.336,1.633,1.462,1.297,2.514
			l-1.393,4.358C23.753,109.213,22.967,109.755,22.12,109.755z M26.853,94.937c-0.201,0-0.406-0.031-0.608-0.095
			c-1.053-0.336-1.633-1.462-1.297-2.514l1.393-4.358c0.336-1.052,1.466-1.63,2.514-1.296c1.053,0.336,1.633,1.462,1.297,2.514
			l-1.393,4.358C28.486,94.395,27.7,94.937,26.853,94.937z"/>
		<path fill="#70C1EC" stroke="#FFFFFF" stroke-miterlimit="10" d="M17.183,125.212c-0.201,0-0.406-0.031-0.608-0.096
			c-1.053-0.336-1.633-1.462-1.297-2.514l0.761-2.382c0.337-1.053,1.467-1.631,2.514-1.297c1.053,0.336,1.633,1.462,1.297,2.514
			l-0.761,2.382C18.816,124.669,18.03,125.212,17.183,125.212z"/>
	</g>
	<g>
		<path fill="#70C1EC" stroke="#FFFFFF" stroke-miterlimit="10" d="M50.468,68.407c-0.201,0-0.406-0.031-0.608-0.095
			c-1.053-0.336-1.633-1.462-1.297-2.514l0.761-2.381c0.336-1.052,1.461-1.634,2.514-1.297c1.053,0.336,1.633,1.462,1.297,2.514
			l-0.761,2.381C52.102,67.865,51.315,68.407,50.468,68.407z"/>
		<path fill="#70C1EC" stroke="#FFFFFF" stroke-miterlimit="10" d="M40.166,100.659c-0.202,0-0.407-0.031-0.609-0.095
			c-1.053-0.336-1.633-1.462-1.297-2.514l1.393-4.358c0.336-1.051,1.46-1.632,2.514-1.296c1.053,0.336,1.633,1.462,1.297,2.514
			l-1.393,4.358C41.799,100.117,41.013,100.659,40.166,100.659z M44.898,85.841c-0.201,0-0.406-0.031-0.608-0.095
			c-1.053-0.336-1.633-1.462-1.297-2.514l1.393-4.358c0.336-1.052,1.465-1.631,2.514-1.296c1.053,0.336,1.633,1.462,1.297,2.514
			l-1.393,4.358C46.532,85.299,45.746,85.841,44.898,85.841z"/>
		<path fill="#70C1EC" stroke="#FFFFFF" stroke-miterlimit="10" d="M35.229,116.115c-0.201,0-0.406-0.03-0.608-0.096
			c-1.053-0.336-1.633-1.461-1.297-2.513l0.761-2.381c0.336-1.052,1.459-1.633,2.514-1.297c1.053,0.336,1.633,1.462,1.297,2.514
			l-0.761,2.382C36.862,115.573,36.076,116.115,35.229,116.115z"/>
	</g>
	<g>
		<path fill="#70C1EC" stroke="#FFFFFF" stroke-miterlimit="10" d="M61.451,77.503c-0.201,0-0.406-0.031-0.608-0.095
			c-1.053-0.336-1.633-1.462-1.297-2.514l0.761-2.381c0.336-1.052,1.459-1.632,2.514-1.297c1.053,0.336,1.633,1.462,1.297,2.514
			l-0.761,2.381C63.085,76.961,62.299,77.503,61.451,77.503z"/>
		<path fill="#70C1EC" stroke="#FFFFFF" stroke-miterlimit="10" d="M51.149,109.755c-0.202,0-0.407-0.031-0.609-0.095
			c-1.053-0.336-1.633-1.462-1.297-2.514l1.393-4.358c0.336-1.052,1.459-1.633,2.514-1.296c1.053,0.336,1.633,1.462,1.297,2.514
			l-1.393,4.358C52.782,109.213,51.996,109.755,51.149,109.755z M55.882,94.937c-0.201,0-0.406-0.031-0.608-0.095
			c-1.053-0.336-1.633-1.462-1.297-2.514l1.393-4.358c0.337-1.052,1.467-1.63,2.514-1.296c1.053,0.336,1.633,1.462,1.297,2.514
			l-1.393,4.358C57.516,94.395,56.729,94.937,55.882,94.937z"/>
		<path fill="#70C1EC" stroke="#FFFFFF" stroke-miterlimit="10" d="M46.212,125.212c-0.201,0-0.406-0.031-0.608-0.096
			c-1.053-0.336-1.633-1.462-1.297-2.514l0.761-2.382c0.336-1.053,1.465-1.631,2.514-1.297c1.053,0.336,1.633,1.462,1.297,2.514
			l-0.761,2.382C47.846,124.669,47.06,125.212,46.212,125.212z"/>
	</g>
	<g>
		<path fill="#70C1EC" stroke="#FFFFFF" stroke-miterlimit="10" d="M79.497,68.407c-0.201,0-0.406-0.031-0.608-0.095
			c-1.053-0.336-1.633-1.462-1.297-2.514l0.761-2.381c0.336-1.052,1.46-1.634,2.514-1.297c1.053,0.336,1.633,1.462,1.297,2.514
			l-0.761,2.381C81.131,67.865,80.345,68.407,79.497,68.407z"/>
		<path fill="#70C1EC" stroke="#FFFFFF" stroke-miterlimit="10" d="M69.195,100.659c-0.202,0-0.407-0.031-0.609-0.095
			c-1.053-0.336-1.633-1.462-1.297-2.514l1.393-4.358c0.336-1.051,1.46-1.632,2.514-1.296c1.053,0.336,1.633,1.462,1.297,2.514
			L71.1,99.268C70.828,100.117,70.042,100.659,69.195,100.659z M73.928,85.841c-0.201,0-0.406-0.031-0.608-0.095
			c-1.053-0.336-1.633-1.462-1.297-2.514l1.393-4.358c0.337-1.052,1.466-1.631,2.514-1.296c1.053,0.336,1.633,1.462,1.297,2.514
			l-1.393,4.358C75.562,85.299,74.775,85.841,73.928,85.841z"/>
		<path fill="#70C1EC" stroke="#FFFFFF" stroke-miterlimit="10" d="M64.258,116.115c-0.201,0-0.406-0.03-0.608-0.096
			c-1.053-0.336-1.633-1.461-1.297-2.513l0.761-2.381c0.336-1.052,1.461-1.633,2.514-1.297s1.633,1.462,1.297,2.514l-0.761,2.382
			C65.892,115.573,65.105,116.115,64.258,116.115z"/>
	</g>
	<g>
		<path fill="#70C1EC" stroke="#FFFFFF" stroke-miterlimit="10" d="M91.926,77.503c-0.201,0-0.406-0.031-0.608-0.095
			c-1.053-0.336-1.633-1.462-1.297-2.514l0.761-2.381c0.336-1.052,1.459-1.632,2.514-1.297c1.053,0.336,1.633,1.462,1.297,2.514
			l-0.761,2.381C93.56,76.961,92.773,77.503,91.926,77.503z"/>
		<path fill="#70C1EC" stroke="#FFFFFF" stroke-miterlimit="10" d="M81.624,109.755c-0.202,0-0.407-0.031-0.609-0.095
			c-1.053-0.336-1.633-1.462-1.297-2.514l1.393-4.358c0.336-1.052,1.459-1.633,2.514-1.296c1.053,0.336,1.633,1.462,1.297,2.514
			l-1.393,4.358C83.257,109.213,82.471,109.755,81.624,109.755z M86.356,94.937c-0.201,0-0.406-0.031-0.608-0.095
			c-1.053-0.336-1.633-1.462-1.297-2.514l1.393-4.358c0.337-1.052,1.466-1.63,2.514-1.296c1.053,0.336,1.633,1.462,1.297,2.514
			l-1.393,4.358C87.99,94.395,87.204,94.937,86.356,94.937z"/>
		<path fill="#70C1EC" stroke="#FFFFFF" stroke-miterlimit="10" d="M76.687,125.212c-0.201,0-0.406-0.031-0.608-0.096
			c-1.053-0.336-1.633-1.462-1.297-2.514l0.761-2.382c0.336-1.053,1.465-1.631,2.514-1.297c1.053,0.336,1.633,1.462,1.297,2.514
			l-0.761,2.382C78.32,124.669,77.534,125.212,76.687,125.212z"/>
	</g>
	<g>
		<path fill="#70C1EC" stroke="#FFFFFF" stroke-miterlimit="10" d="M109.972,68.407c-0.201,0-0.406-0.031-0.608-0.095
			c-1.053-0.336-1.633-1.462-1.297-2.514l0.761-2.381c0.336-1.052,1.46-1.634,2.514-1.297c1.053,0.336,1.633,1.462,1.297,2.514
			l-0.761,2.381C111.605,67.865,110.819,68.407,109.972,68.407z"/>
		<path fill="#70C1EC" stroke="#FFFFFF" stroke-miterlimit="10" d="M99.67,100.659c-0.202,0-0.407-0.031-0.609-0.095
			c-1.053-0.336-1.633-1.462-1.297-2.514l1.393-4.358c0.336-1.051,1.46-1.632,2.514-1.296c1.053,0.336,1.633,1.462,1.297,2.514
			l-1.393,4.358C101.303,100.117,100.517,100.659,99.67,100.659z M104.402,85.841c-0.201,0-0.406-0.031-0.608-0.095
			c-1.053-0.336-1.633-1.462-1.297-2.514l1.393-4.358c0.337-1.052,1.466-1.631,2.514-1.296c1.053,0.336,1.633,1.462,1.297,2.514
			l-1.393,4.358C106.036,85.299,105.25,85.841,104.402,85.841z"/>
		<path fill="#70C1EC" stroke="#FFFFFF" stroke-miterlimit="10" d="M94.732,116.115c-0.201,0-0.406-0.03-0.608-0.096
			c-1.053-0.336-1.633-1.461-1.297-2.513l0.761-2.381c0.336-1.052,1.461-1.633,2.514-1.297s1.633,1.462,1.297,2.514l-0.761,2.382
			C96.366,115.573,95.58,116.115,94.732,116.115z"/>
	</g>
	<path fill="#C0C0C0" stroke="#7A7A7A" stroke-width="3" stroke-miterlimit="10" d="M106.371,39.805
		c-5.81-8.245-18.14-13.493-32.06-12.635c-10.259,0.632-19.25,4.451-25.178,9.975c-1.748-0.143-3.547-0.165-5.382-0.052
		c-9.901,0.61-18.317,4.964-22.665,10.948c-0.555-0.002-1.115,0.011-1.683,0.046c-9.417,0.58-16.73,6.222-16.337,12.602
		c0.393,6.38,8.344,11.082,17.761,10.501c1.624-0.1,3.179-0.36,4.649-0.739c5.193,3.716,12.588,5.81,20.658,5.312
		c4.335-0.267,8.383-1.255,11.932-2.78c5.588,2.282,12.217,3.407,19.25,2.974c8.559-0.527,16.233-3.275,21.986-7.377
		c2.354,0.436,4.882,0.599,7.498,0.438c11.886-0.732,21.118-7.854,20.622-15.907C126.947,45.37,117.65,39.589,106.371,39.805z"/>
	<path fill="#C9C9C9" d="M108.159,42.487c-2.213,0.136-4.305,0.564-6.19,1.222c0.104-0.603,0.149-1.213,0.112-1.828
		c-0.488-7.905-12.971-13.569-27.884-12.649c-11.473,0.707-21.029,5.103-24.612,10.691c-3.334-0.938-7.795-0.951-12.482,0.202
		c-7.556,1.858-13.207,6.114-13.988,10.157c-2.168-0.32-4.771-0.195-7.476,0.47C9.244,52.325,4.72,56.285,5.537,59.598
		c0.261,1.068,1.052,1.935,2.208,2.571c0.944-2.763,4.855-5.551,9.974-6.81c2.992-0.735,5.856-0.811,8.148-0.35
		c1.173-3.869,6.656-7.823,13.862-9.594c5.1-1.254,9.937-1.133,13.337,0.064c4.658-3.527,11.938-6.047,20.239-6.559
		c13.152-0.811,24.379,3.695,26.872,10.355c1.036-0.191,2.109-0.33,3.214-0.398c9.377-0.578,17.273,3.76,17.639,9.689
		c0.027,0.436,0.001,0.866-0.053,1.293c2.603-2.09,4.121-4.778,3.945-7.63C124.558,46.301,117.053,41.939,108.159,42.487z"/>
	<path fill="#9293A2" d="M77.124,72.052c-8.042,0.496-15.325-0.816-20.209-3.271c-3.206,2.114-8.227,3.654-13.951,4.006
		c-4.953,0.306-9.495-0.336-12.86-1.618c3.557,1.766,9.077,2.716,15.224,2.337c4.723-0.291,8.982-1.317,12.211-2.768
		c4.65,2.354,11.538,3.612,19.128,3.145c11.036-0.681,20.145-4.799,22.9-9.857C95.542,68.218,87.08,71.438,77.124,72.052z"/>
	<path fill="#C0C0C0" stroke="#7A7A7A" stroke-width="2" stroke-miterlimit="10" d="M132.942,65.573
		c-1.154,0-2.267,0.109-3.322,0.302c-3.983-3.988-11.154-6.65-19.339-6.65c-10.962,0-20.106,4.773-22.208,11.114
		c-0.152-0.003-0.301-0.014-0.455-0.014c-6.595,0-11.941,3.379-11.941,7.548s5.347,7.548,11.941,7.548
		c2.973,0,5.687-0.691,7.776-1.827c3.982,2.13,9.187,3.423,14.887,3.423c8.185,0,15.355-2.662,19.339-6.65
		c1.056,0.193,2.168,0.302,3.322,0.302c6.596,0,11.941-3.38,11.941-7.549S139.538,65.573,132.942,65.573z"/>
	<path fill="#C9C9C9" d="M132.942,66.544c-1.615,0-3.141,0.224-4.518,0.611c-2.369-3.951-10.222-6.637-19.454-6.28
		c-10.958,0.422-19.679,4.963-19.478,10.142c0.004,0.132,0.04,0.26,0.057,0.39c-0.627-0.069-1.271-0.111-1.932-0.111
		c-5.955,0-10.782,2.944-10.782,6.577c0,1.223,0.558,2.363,1.509,3.343c-0.033-0.21-0.055-0.422-0.055-0.638
		c0-3.654,5.037-6.617,11.254-6.617c0.312,0,0.617,0.013,0.922,0.027c1.923-5.639,10.004-9.872,19.686-9.872
		c7.186,0,13.475,2.338,17.036,5.843c1.568-0.864,3.571-1.382,5.755-1.382c5.029,0,9.106,2.748,9.106,6.137
		c0,0.964-0.339,1.872-0.927,2.685c1.619-1.151,2.604-2.644,2.604-4.279C143.726,69.49,138.896,66.544,132.942,66.544z"/>
	<path fill="#9293A2" d="M109.136,85.012c-5.777,0-11.113-1.043-15.426-2.807c3.742,2.401,9.647,3.959,16.314,3.959
		c8.646,0,16.026-2.612,19.035-6.301C124.298,83.01,117.142,85.012,109.136,85.012z"/>
</g>
</svg>
