<?xml version="1.0" encoding="utf-8"?>
<!-- Generator: Adobe Illustrator 16.0.0, SVG Export Plug-In . SVG Version: 6.00 Build 0)  -->
<!DOCTYPE svg PUBLIC "-//W3C//DTD SVG 1.1//EN" "http://www.w3.org/Graphics/SVG/1.1/DTD/svg11.dtd">
<svg version="1.1" id="Layer_1" xmlns="http://www.w3.org/2000/svg" xmlns:xlink="http://www.w3.org/1999/xlink" x="0px" y="0px"
	 width="146.5px" height="146px" viewBox="0 0 146.5 146" enable-background="new 0 0 146.5 146" xml:space="preserve">
<polygon fill="#E45C5C" points="56.844,36.937 109.716,52.719 56.844,68.503 "/>
<polygon fill="#BF5959" points="57.478,37.127 62.352,66.858 57.478,68.313 "/>
<line fill="none" stroke="#E56D6C" stroke-width="2" stroke-linecap="round" stroke-miterlimit="10" x1="71.926" y1="42.899" x2="101.823" y2="51.668"/>
<path fill="none" stroke="#6F6F6E" stroke-width="3" stroke-linecap="round" stroke-miterlimit="10" d="M55.792,67.601
	c-8.217,0-14.882-6.663-14.882-14.882c0-8.218,6.665-14.881,14.882-14.881"/>
<line fill="none" stroke="#CCCBCB" stroke-width="3" stroke-linecap="round" stroke-miterlimit="10" x1="56.844" y1="36.937" x2="56.844" y2="111.116"/>
<polygon fill="#FFFFFF" points="88.282,123.644 85.953,121.511 73.551,135.059 59.55,121.317 57.334,123.576 73.675,139.605 "/>
<path fill="#FFFFFF" d="M72.808,142.328c-0.002,0-0.002,0-0.004,0c-17.489-0.001-34.206-6.496-47.071-18.289
	C-2.596,98.072-4.516,53.896,21.452,25.563C34.6,11.222,53.336,2.996,72.858,2.996c17.486,0,34.202,6.495,47.069,18.288
	c13.702,12.56,21.694,29.731,22.505,48.352c0.81,18.621-5.662,36.423-18.223,50.124C111.062,134.102,92.327,142.328,72.808,142.328z
	 M72.858,4.927c-18.981,0-37.199,7.997-49.982,21.941c-25.249,27.547-23.382,70.5,4.162,95.747
	c12.508,11.467,28.762,17.781,45.767,17.782c0.001,0,0.003,0,0.004,0c18.979,0,37.195-7.998,49.978-21.942
	c12.213-13.321,18.505-30.629,17.717-48.735c-0.787-18.104-8.559-34.801-21.88-47.013C106.113,11.24,89.86,4.927,72.858,4.927z"/>
</svg>
