<?xml version="1.0" encoding="utf-8"?>
<!-- Generator: Adobe Illustrator 16.0.0, SVG Export Plug-In . SVG Version: 6.00 Build 0)  -->
<!DOCTYPE svg PUBLIC "-//W3C//DTD SVG 1.1//EN" "http://www.w3.org/Graphics/SVG/1.1/DTD/svg11.dtd">
<svg version="1.1" id="Layer_1" xmlns="http://www.w3.org/2000/svg" xmlns:xlink="http://www.w3.org/1999/xlink" x="0px" y="0px"
	 width="146.5px" height="146px" viewBox="0 0 146.5 146" enable-background="new 0 0 146.5 146" xml:space="preserve">
<polygon fill="#E45C5C" points="56.846,36.937 109.717,52.719 56.846,68.503 "/>
<polygon fill="#BF5959" points="57.479,37.127 62.353,66.858 57.479,68.313 "/>
<line fill="none" stroke="#E56D6C" stroke-width="2" stroke-linecap="round" stroke-miterlimit="10" x1="71.927" y1="42.899" x2="101.825" y2="51.668"/>
<path fill="none" stroke="#6F6F6E" stroke-width="3" stroke-linecap="round" stroke-miterlimit="10" d="M55.792,67.601
	c-8.217,0-14.881-6.663-14.881-14.882c0-8.218,6.664-14.881,14.881-14.881"/>
<line fill="none" stroke="#CCCBCB" stroke-width="3" stroke-linecap="round" stroke-miterlimit="10" x1="56.846" y1="36.937" x2="56.846" y2="111.116"/>
<polygon fill="#FFFFFF" points="47.708,119.638 47.57,116.484 29.221,117.294 29.037,97.678 25.873,97.707 26.093,120.597 "/>
<path fill="#FFFFFF" d="M72.809,142.328c-0.003,0-0.002,0-0.005,0c-17.488-0.001-34.205-6.496-47.07-18.289
	C-2.595,98.071-4.515,53.896,21.453,25.563C34.602,11.222,53.339,2.996,72.859,2.996c17.488,0,34.203,6.495,47.069,18.288
	c13.702,12.56,21.694,29.731,22.504,48.352c0.811,18.621-5.661,36.422-18.222,50.124C111.063,134.102,92.328,142.328,72.809,142.328
	z M72.859,4.927c-18.98,0-37.199,7.997-49.982,21.941c-25.249,27.546-23.382,70.499,4.162,95.747
	c12.508,11.467,28.762,17.781,45.767,17.782c0.001,0,0.003,0,0.004,0c18.979,0,37.195-7.998,49.978-21.942
	C135,105.134,141.292,87.826,140.503,69.72c-0.787-18.104-8.558-34.801-21.88-47.013C106.115,11.24,89.863,4.927,72.859,4.927z"/>
</svg>
