<?xml version="1.0" encoding="utf-8"?>
<!-- Generator: Adobe Illustrator 16.0.0, SVG Export Plug-In . SVG Version: 6.00 Build 0)  -->
<!DOCTYPE svg PUBLIC "-//W3C//DTD SVG 1.1//EN" "http://www.w3.org/Graphics/SVG/1.1/DTD/svg11.dtd">
<svg version="1.1" id="Layer_1" xmlns="http://www.w3.org/2000/svg" xmlns:xlink="http://www.w3.org/1999/xlink" x="0px" y="0px"
	 width="146.5px" height="146px" viewBox="0 0 146.5 146" enable-background="new 0 0 146.5 146" xml:space="preserve">
<polygon fill="#E45C5C" points="56.845,36.605 109.717,52.388 56.845,68.171 "/>
<polygon fill="#BF5959" points="57.478,36.795 62.352,66.526 57.478,67.981 "/>
<line fill="none" stroke="#E56D6C" stroke-width="2" stroke-linecap="round" stroke-miterlimit="10" x1="71.925" y1="42.567" x2="101.824" y2="51.336"/>
<path fill="none" stroke="#6F6F6E" stroke-width="3" stroke-linecap="round" stroke-miterlimit="10" d="M55.792,67.269
	c-8.217,0-14.881-6.663-14.881-14.881s6.664-14.881,14.881-14.881"/>
<line fill="none" stroke="#CCCBCB" stroke-width="3" stroke-linecap="round" stroke-miterlimit="10" x1="56.845" y1="36.605" x2="56.845" y2="110.784"/>
<path fill="#FFFFFF" d="M72.809,141.996c-0.003,0-0.002,0-0.005,0c-17.489-0.001-34.206-6.496-47.072-18.289
	C-2.596,97.74-4.517,53.564,21.453,25.233C34.601,10.89,53.338,2.664,72.859,2.664c17.487,0,34.203,6.495,47.069,18.288
	c13.701,12.56,21.693,29.731,22.504,48.352c0.811,18.621-5.661,36.422-18.223,50.124C111.063,133.77,92.327,141.996,72.809,141.996z
	 M72.859,4.595c-18.981,0-37.199,7.998-49.983,21.943c-25.249,27.547-23.383,70.499,4.161,95.747
	c12.51,11.466,28.764,17.78,45.768,17.781c0.002,0,0.004,0,0.005,0c18.979,0,37.194-7.997,49.977-21.942
	c12.213-13.321,18.506-30.629,17.717-48.735c-0.787-18.105-8.557-34.801-21.879-47.013C106.114,10.909,89.862,4.595,72.859,4.595z"
	/>
<polygon fill="#FFFFFF" points="119.806,97.453 116.651,97.592 117.461,115.941 97.844,116.125 97.875,119.287 120.763,119.067 "/>
</svg>
