<?xml version="1.0" encoding="utf-8"?>
<!-- Generator: Adobe Illustrator 16.0.0, SVG Export Plug-In . SVG Version: 6.00 Build 0)  -->
<!DOCTYPE svg PUBLIC "-//W3C//DTD SVG 1.1//EN" "http://www.w3.org/Graphics/SVG/1.1/DTD/svg11.dtd">
<svg version="1.1" id="Layer_1" xmlns="http://www.w3.org/2000/svg" xmlns:xlink="http://www.w3.org/1999/xlink" x="0px" y="0px"
	 width="146.5px" height="146px" viewBox="0 0 146.5 146" enable-background="new 0 0 146.5 146" xml:space="preserve">
<g>
	<g>
		<polygon fill="#FFDD00" points="63.462,53.642 73.097,24.973 82.731,53.642 		"/>
		<polygon fill="#F5C90D" points="92.133,63.071 120.802,72.706 92.133,82.34 		"/>
		<polygon fill="#FFDD00" points="54.116,82.34 25.448,72.706 54.116,63.071 		"/>
		<polygon fill="#F5C90D" points="82.731,91.528 73.097,120.196 63.462,91.528 		"/>
		<polygon fill="#F5C90D" points="76.251,55.794 103.337,42.336 89.877,69.42 		"/>
		<polygon fill="#F5C90D" points="89.854,75.862 103.315,102.946 76.229,89.488 		"/>
		<polygon fill="#FFDD00" points="56.221,69.479 42.763,42.395 69.847,55.854 		"/>
		<polygon fill="#FFDD00" points="69.958,89.338 42.875,102.796 56.334,75.712 		"/>
		<g>
			<circle fill="#F6CA13" cx="73.098" cy="72.706" r="23.692"/>
			<path fill="#4BAFE3" d="M73.097,49.015c13.086,0,23.693,10.606,23.693,23.691S86.183,96.398,73.097,96.398
				c-13.085,0-23.691-10.607-23.691-23.692S60.012,49.015,73.097,49.015 M73.097,47.686c-13.796,0-25.019,11.224-25.019,25.02
				c0,13.797,11.223,25.021,25.019,25.021c13.797,0,25.021-11.224,25.021-25.021C98.118,58.91,86.894,47.686,73.097,47.686
				L73.097,47.686z"/>
		</g>
		<g>
			<defs>
				<circle id="SVGID_1_" cx="68.515" cy="68.572" r="22.428"/>
			</defs>
			<clipPath id="SVGID_2_">
				<use xlink:href="#SVGID_1_"  overflow="visible"/>
			</clipPath>
			<circle clip-path="url(#SVGID_2_)" fill="#FFDD00" cx="72.949" cy="72.555" r="22.429"/>
		</g>
		<path fill="#FFE600" d="M56.864,87.755c-0.269,0-0.537-0.108-0.732-0.322c-8.432-9.157-6.799-21.624-0.833-29.205
			c5.618-7.136,16.488-12.061,30.14-4.478c0.48,0.268,0.654,0.875,0.387,1.356c-0.27,0.48-0.877,0.654-1.355,0.387
			c-12.561-6.978-22.494-2.523-27.604,3.967c-5.445,6.92-6.944,18.286,0.731,26.623c0.374,0.405,0.346,1.036-0.059,1.408
			C57.347,87.667,57.105,87.755,56.864,87.755z"/>
		<path fill="#FFE600" d="M66.863,48.019c-0.104,0-0.209-0.017-0.314-0.051c-0.523-0.174-0.804-0.739-0.631-1.262l5.407-16.233
			c0.173-0.522,0.738-0.804,1.26-0.631c0.521,0.174,0.804,0.738,0.631,1.261l-5.409,16.233C67.67,47.754,67.28,48.019,66.863,48.019
			z"/>
		<path fill="#FFE600" d="M51.293,57.625c-0.366,0-0.718-0.202-0.894-0.55l-5.207-10.407c-0.246-0.493-0.046-1.091,0.447-1.338
			c0.488-0.246,1.09-0.046,1.336,0.445l5.206,10.407c0.247,0.492,0.046,1.09-0.446,1.337C51.595,57.591,51.443,57.625,51.293,57.625
			z"/>
	</g>
	<g>
		<ellipse fill="#ECECEC" cx="11.697" cy="90.533" rx="10.24" ry="6.938"/>
		<ellipse fill="#ECECEC" cx="63.216" cy="90.584" rx="12.924" ry="8.756"/>
		<ellipse fill="#ECECEC" cx="26.67" cy="89.527" rx="16.212" ry="11.613"/>
		<ellipse fill="#ECECEC" cx="45.319" cy="87.755" rx="20.454" ry="14.65"/>
		<path fill="#FFFFFF" d="M65.006,83.518c-1.331,0-2.597,0.179-3.75,0.503c0.086-0.357,0.134-0.72,0.134-1.089
			c0-4.748-7.259-8.597-16.216-8.597c-6.89,0-12.77,2.278-15.12,5.49c-1.959-0.685-4.628-0.856-7.475-0.34
			c-4.588,0.833-8.127,3.171-8.744,5.562c-1.286-0.271-2.847-0.293-4.49,0.005c-3.882,0.706-6.736,2.907-6.37,4.92
			c0.117,0.648,0.559,1.196,1.226,1.619c0.666-1.617,3.109-3.141,6.219-3.706c1.817-0.33,3.533-0.27,4.887,0.091
			c0.844-2.272,4.271-4.435,8.647-5.229c3.098-0.562,5.987-0.312,7.977,0.53c2.918-1.938,7.366-3.178,12.352-3.178
			c7.899,0,14.449,3.109,15.696,7.186c0.627-0.076,1.275-0.12,1.938-0.12c5.632,0,10.196,2.887,10.196,6.447
			c0,0.262-0.031,0.518-0.079,0.771c1.635-1.154,2.642-2.707,2.642-4.419C74.676,86.404,70.347,83.518,65.006,83.518z"/>
		<path fill="#D6D6E5" d="M45.347,100.062c-4.83,0-9.139-1.053-11.971-2.702c-1.996,1.146-5.055,1.883-8.494,1.883
			c-2.976,0-5.669-0.552-7.635-1.442c2.063,1.188,5.331,1.959,9.022,1.959c2.836,0,5.422-0.457,7.407-1.206
			c2.696,1.58,6.771,2.586,11.328,2.586c6.629,0,12.23-2.128,14.066-5.053C56.507,98.447,51.327,100.062,45.347,100.062z"/>
	</g>
	<ellipse fill="#ECECEC" cx="85.952" cy="68.013" rx="12.418" ry="7.85"/>
	<ellipse fill="#ECECEC" cx="133.082" cy="63.071" rx="12.418" ry="7.85"/>
	<ellipse fill="#ECECEC" cx="109.517" cy="63.071" rx="23.566" ry="14.451"/>
	<path fill="#FFFFFF" d="M133.083,56.232c-1.68,0-3.268,0.232-4.699,0.636c-2.463-4.108-10.629-6.901-20.23-6.532
		c-11.395,0.439-20.463,5.162-20.253,10.547c0.005,0.137,0.042,0.27,0.059,0.406c-0.652-0.073-1.322-0.116-2.008-0.116
		c-6.193,0-11.213,3.062-11.213,6.839c0,1.271,0.581,2.457,1.57,3.477c-0.035-0.218-0.057-0.439-0.057-0.663
		c0-3.8,5.238-6.88,11.702-6.88c0.324,0,0.642,0.013,0.959,0.028c1.999-5.863,10.401-10.266,20.47-10.266
		c7.472,0,14.012,2.431,17.714,6.076c1.63-0.898,3.713-1.438,5.984-1.438c5.23,0,9.469,2.857,9.469,6.382
		c0,1.002-0.353,1.946-0.963,2.792c1.684-1.197,2.707-2.75,2.707-4.45C144.295,59.295,139.274,56.232,133.083,56.232z"/>
	<path fill="#D6D6E5" d="M108.327,75.436c-6.008,0-11.557-1.085-16.041-2.918c3.891,2.497,10.032,4.117,16.964,4.117
		c8.991,0,16.665-2.716,19.794-6.552C124.092,73.354,116.651,75.436,108.327,75.436z"/>
</g>
</svg>
