<?xml version="1.0" encoding="utf-8"?>
<!-- Generator: Adobe Illustrator 16.0.0, SVG Export Plug-In . SVG Version: 6.00 Build 0)  -->
<!DOCTYPE svg PUBLIC "-//W3C//DTD SVG 1.1//EN" "http://www.w3.org/Graphics/SVG/1.1/DTD/svg11.dtd">
<svg version="1.1" id="Layer_1" xmlns="http://www.w3.org/2000/svg" xmlns:xlink="http://www.w3.org/1999/xlink" x="0px" y="0px"
	 width="146.5px" height="146px" viewBox="0 0 146.5 146" enable-background="new 0 0 146.5 146" xml:space="preserve">
<g>
	<g>
		<polygon fill="#FFDD00" points="58.212,44.145 72.711,1 87.211,44.145 		"/>
	</g>
	<g>
		<polygon fill="#F5C90D" points="101.359,58.337 144.504,72.837 101.359,87.337 		"/>
	</g>
	<g>
		<polygon fill="#FFDD00" points="44.145,87.337 1,72.837 44.145,58.337 		"/>
	</g>
	<g>
		<polygon fill="#F5C90D" points="87.211,101.165 72.711,144.309 58.212,101.165 		"/>
	</g>
	<g>
		<polygon fill="#F5C90D" points="77.459,47.386 118.221,27.131 97.965,67.892 		"/>
	</g>
	<g>
		<polygon fill="#F5C90D" points="97.932,77.587 118.188,118.348 77.426,98.093 		"/>
	</g>
	<g>
		<polygon fill="#FFDD00" points="47.313,67.98 27.059,27.22 67.818,47.475 		"/>
	</g>
	<g>
		<polygon fill="#FFDD00" points="67.988,97.868 27.228,118.123 47.482,77.362 		"/>
	</g>
	<g>
		<path fill="#F6CA13" d="M72.711,109.493c-20.211,0-36.654-16.443-36.654-36.655S52.5,36.182,72.711,36.182
			c20.212,0,36.656,16.443,36.656,36.655S92.923,109.493,72.711,109.493z"/>
		<path fill="#4BAFE3" d="M72.711,37.182c19.693,0,35.656,15.963,35.656,35.655s-15.963,35.655-35.656,35.655
			c-19.691,0-35.654-15.963-35.654-35.655S53.02,37.182,72.711,37.182 M72.711,35.182c-20.763,0-37.654,16.892-37.654,37.655
			s16.892,37.655,37.654,37.655c20.764,0,37.656-16.892,37.656-37.655S93.475,35.182,72.711,35.182L72.711,35.182z"/>
	</g>
	<g>
		<defs>
			<circle id="SVGID_1_" cx="65.813" cy="66.615" r="33.755"/>
		</defs>
		<clipPath id="SVGID_2_">
			<use xlink:href="#SVGID_1_"  overflow="visible"/>
		</clipPath>
		<circle clip-path="url(#SVGID_2_)" fill="#FFDD00" cx="72.488" cy="72.611" r="33.754"/>
	</g>
	<path fill="none" stroke="#FFE600" stroke-width="3" stroke-linecap="round" stroke-miterlimit="10" d="M48.281,93.986
		C25.357,69.086,52.729,24.61,90.555,45.622"/>
	
		<line fill="none" stroke="#FFE600" stroke-width="3" stroke-linecap="round" stroke-miterlimit="10" x1="63.33" y1="34.182" x2="71.467" y2="9.751"/>
	
		<line fill="none" stroke="#FFE600" stroke-width="3" stroke-linecap="round" stroke-miterlimit="10" x1="39.895" y1="48.641" x2="32.059" y2="32.979"/>
</g>
</svg>
