<?xml version="1.0" encoding="utf-8"?>
<!-- Generator: Adobe Illustrator 16.0.0, SVG Export Plug-In . SVG Version: 6.00 Build 0)  -->
<!DOCTYPE svg PUBLIC "-//W3C//DTD SVG 1.1//EN" "http://www.w3.org/Graphics/SVG/1.1/DTD/svg11.dtd">
<svg version="1.1" id="Layer_1" xmlns="http://www.w3.org/2000/svg" xmlns:xlink="http://www.w3.org/1999/xlink" x="0px" y="0px"
	 width="146.5px" height="146px" viewBox="0 0 146.5 146" enable-background="new 0 0 146.5 146" xml:space="preserve">
<polygon fill="#E45C5C" points="56.844,36.937 109.717,52.719 56.844,68.503 "/>
<polygon fill="#BF5959" points="57.478,37.127 62.351,66.858 57.478,68.313 "/>
<line fill="none" stroke="#E56D6C" stroke-width="2" stroke-linecap="round" stroke-miterlimit="10" x1="71.925" y1="42.899" x2="101.823" y2="51.668"/>
<path fill="none" stroke="#6F6F6E" stroke-width="3" stroke-linecap="round" stroke-miterlimit="10" d="M55.791,67.601
	c-8.217,0-14.881-6.663-14.881-14.882c0-8.218,6.664-14.881,14.881-14.881"/>
<line fill="none" stroke="#CCCBCB" stroke-width="3" stroke-linecap="round" stroke-miterlimit="10" x1="56.844" y1="36.937" x2="56.844" y2="111.116"/>
<polygon fill="#FFFFFF" points="21.849,88.115 23.981,85.788 10.434,73.386 24.175,59.386 21.917,57.169 5.887,73.51 "/>
<path fill="#FFFFFF" d="M72.808,142.328c-0.003,0-0.002,0-0.005,0c-17.488-0.001-34.206-6.496-47.071-18.289
	c-28.328-25.968-30.248-70.144-4.28-98.476C34.6,11.222,53.337,2.996,72.858,2.996c17.487,0,34.202,6.495,47.068,18.288
	c13.703,12.56,21.695,29.731,22.506,48.352c0.81,18.621-5.662,36.422-18.224,50.124C111.062,134.102,92.326,142.328,72.808,142.328z
	 M72.858,4.927c-18.98,0-37.199,7.997-49.982,21.941c-25.249,27.546-23.383,70.499,4.161,95.747
	c12.509,11.467,28.763,17.781,45.767,17.782c0.002,0,0.004,0,0.005,0c18.979,0,37.194-7.998,49.978-21.942
	c12.213-13.321,18.505-30.629,17.718-48.735c-0.788-18.104-8.559-34.801-21.882-47.013C106.113,11.24,89.861,4.927,72.858,4.927z"/>
</svg>
